<?xml version="1.0" encoding="utf-8"?>
<!-- Generator: Adobe Illustrator 20.0.0, SVG Export Plug-In . SVG Version: 6.00 Build 0)  -->
<svg version="1.1" id="Layer_1" xmlns="http://www.w3.org/2000/svg" xmlns:xlink="http://www.w3.org/1999/xlink" x="0px" y="0px"
	 viewBox="0 0 192.3 38" style="enable-background:new 0 0 192.3 38;" xml:space="preserve" width="192px" height="38px">
<style type="text/css">
	.st0{fill:#FFFFFF;}
</style>
<g>
	<path class="st0" d="M6.4,33.6c3,0,5.5-1.4,5.5-4.9v-1.4c0-0.6,0.1-1.1,0.1-1.1h-0.1c-0.9,1.7-2.5,2.7-4.9,2.7
		c-4.2,0-6.9-3.3-6.9-8S2.6,13,6.8,13c4.1,0,5.1,2.6,5.1,2.6H12c0,0,0-0.2,0-0.5v-1.7h2v15.2c0,5-3.7,6.9-7.5,6.9
		c-1.8,0-3.6-0.5-5.1-1.2l0.8-1.7C2.2,32.5,4.1,33.6,6.4,33.6z M11.9,20.9c0-4.6-2.2-6-4.9-6c-3,0-4.8,2.2-4.8,5.9s2,6.1,5.1,6.1
		C9.7,27,11.9,25.5,11.9,20.9z"/>
	<path class="st0" d="M18.3,7.2h2.1v17.6c0,2,0.9,2.4,1.7,2.4c0.3,0,0.5,0,0.5,0V29c0,0-0.4,0.1-0.8,0.1c-1.3,0-3.6-0.4-3.6-3.8V7.2
		z"/>
	<path class="st0" d="M32.6,13c4.6,0,8.2,3.5,8.2,8.1c0,4.7-3.7,8.2-8.2,8.2c-4.6,0-8.2-3.5-8.2-8.2C24.4,16.5,28.1,13,32.6,13z
		 M32.6,27.5c3.3,0,6.1-2.7,6.1-6.4c0-3.5-2.7-6.2-6.1-6.2s-6.1,2.6-6.1,6.2C26.6,24.7,29.3,27.5,32.6,27.5z"/>
	<path class="st0" d="M44.2,7.2h2.1v7.6c0,0.7-0.1,1.3-0.1,1.3h0.1c0,0,1.3-3,5.3-3c4.2,0,6.8,3.3,6.8,8.2c0,4.9-2.9,8.2-7,8.2
		c-3.7,0-5.1-3-5.1-3h-0.1c0,0,0.1,0.5,0.1,1.3V29h-2V7.2z M51.2,27.5c2.8,0,5-2.3,5-6.3c0-3.8-2-6.3-4.9-6.3
		c-2.6,0-5.1,1.9-5.1,6.3C46.3,24.4,47.9,27.5,51.2,27.5z"/>
	<path class="st0" d="M61.7,13.4h2.1v9.4c0,2.4,0.4,4.6,3.4,4.6c3.6,0,5.8-3.1,5.8-6.5v-7.5h2.1V29h-2v-2.3c0-0.7,0.1-1.2,0.1-1.2
		H73c-0.6,1.5-2.7,3.9-6.1,3.9c-3.7,0-5.2-2-5.2-6V13.4z"/>
	<path class="st0" d="M79.4,25.6c0,0,1.7,1.9,4.7,1.9c1.7,0,3.1-0.8,3.1-2.5c0-3.4-8.4-2.6-8.4-7.7c0-2.8,2.5-4.3,5.3-4.3
		c3.3,0,4.8,1.7,4.8,1.7l-1,1.6c0,0-1.3-1.4-3.9-1.4c-1.6,0-3.1,0.7-3.1,2.4c0,3.4,8.4,2.5,8.4,7.7c0,2.5-2.2,4.4-5.3,4.4
		c-3.8,0-5.8-2.3-5.8-2.3L79.4,25.6z"/>
</g>
<g>
	<path class="st0" d="M143.7,7.2h3v17.1c0,1.9,0.7,2.2,1.7,2.2c0.3,0,0.5,0,0.5,0v2.7c0,0-0.5,0.1-1,0.1c-1.7,0-4.2-0.5-4.2-4.4V7.2
		z"/>
	<path class="st0" d="M158.5,19.3h0.7V19c0-2.6-1.5-3.4-3.4-3.4c-2.4,0-4.4,1.5-4.4,1.5l-1.2-2.2c0,0,2.3-1.9,5.9-1.9
		c4,0,6.2,2.2,6.2,6.1v9.9h-2.8v-1.5c0-0.7,0.1-1.2,0.1-1.2h-0.1c0,0-1.3,3.1-5,3.1c-2.7,0-5.3-1.6-5.3-4.8
		C149.1,19.5,155.9,19.3,158.5,19.3z M155.1,27c2.5,0,4.2-2.7,4.2-5v-0.5h-0.8c-2.3,0-6.4,0.2-6.4,3C152.1,25.8,153.1,27,155.1,27z"
		/>
	<path class="st0" d="M165,7.2h3v7.2c0,0.8-0.1,1.3-0.1,1.3h0.1c0,0,1.3-2.7,5-2.7c4.2,0,6.9,3.3,6.9,8.2c0,5-3,8.2-7.1,8.2
		c-3.5,0-4.9-2.7-4.9-2.7h-0.1c0,0,0.1,0.5,0.1,1.2v1.1H165V7.2z M172.4,26.9c2.5,0,4.5-2,4.5-5.6c0-3.4-1.8-5.6-4.4-5.6
		c-2.4,0-4.5,1.6-4.5,5.6C167.9,24.1,169.4,26.9,172.4,26.9z"/>
	<path class="st0" d="M182.1,25c0,0,1.8,1.8,4.5,1.8c1.3,0,2.6-0.7,2.6-2c0-2.9-8.1-2.3-8.1-7.4c0-2.9,2.5-4.5,5.7-4.5
		c3.4,0,5.1,1.7,5.1,1.7l-1.2,2.3c0,0-1.4-1.4-3.9-1.4c-1.3,0-2.6,0.6-2.6,1.9c0,2.8,8.1,2.2,8.1,7.3c0,2.6-2.2,4.6-5.7,4.6
		c-3.8,0-6-2.3-6-2.3L182.1,25z"/>
</g>
<g>
	<polygon class="st0" points="118.5,8.8 115.6,8.8 115.6,14.1 110.9,21.9 123.2,21.9 118.5,14.1 	"/>
	<path class="st0" d="M117,0c-10.5,0-19,8.5-19,19s8.5,19,19,19s19-8.5,19-19S127.5,0,117,0z M124.3,30.6h-14.5
		c-3.2,0-4.5-2.2-2.8-5l7.2-12V8.8h-0.7c-0.4,0-0.7-0.3-0.7-0.7s0.3-0.7,0.7-0.7h7.3c0.4,0,0.7,0.3,0.7,0.7s-0.3,0.7-0.7,0.7h-0.7
		v4.8l7.2,12C128.8,28.4,127.5,30.6,124.3,30.6z"/>
</g>
</svg>
